<?xml version="1.0" encoding="utf-8"?>
<!-- Generator: Adobe Illustrator 22.0.1, SVG Export Plug-In . SVG Version: 6.00 Build 0)  -->
<svg version="1.1" id="Layer_1" xmlns="http://www.w3.org/2000/svg" x="0px" y="0px"
     viewBox="0 0 40 40" style="enable-background:new 0 0 214 41;" xml:space="preserve">
<style type="text/css">
	.st0{fill:#FF9933;}
	.st1{fill:#0099CC;}
	.st2{fill:url(#SVGID_1_);}
	.st3{fill:url(#SVGID_2_);}
	.st4{fill:url(#SVGID_3_);}
</style>
    <title>opencertslogo</title>
    <desc>Created with Sketch.</desc>
    <g transform="translate(3.000000, 0.000000)">
		<g>

			<linearGradient id="SVGID_1_" gradientUnits="userSpaceOnUse" x1="-181.2531"
                                                y1="307.3595" x2="-181.0829" y2="306.6995"
                                                gradientTransform="matrix(29.1212 0 0 -32.4494 5286.8164 9979.0166)">
				<stop offset="0" style="stop-color:#FF9933"/>
				<stop offset="1" style="stop-color:#FF6633"/>
			</linearGradient>
			<path class="st2" d="M0,12.1v10.1c0,0.8,0.6,1.7,1.2,2.1l8.8,5c0.3,0.2,0.8,0.3,1.2,0.3c-0.2-0.4-0.2-0.8-0.2-0.9v-2.8
								c-0.5,0-0.9-0.1-1.2-0.3l-5.2-3c-0.8-0.4-1.4-1.5-1.4-2.4v-6c0-0.9,0.6-2,1.4-2.4l5.2-3c0.8-0.4,2-0.4,2.8,0l5.2,3
								c0.3,0.2,0.7,0.5,0.9,0.9l0,0l0.1,0.1l0,0.1l0,0l0,0.1c0,0,0,0,0,0.1l0,0.1c0,0,0,0.1,0,0.1l0,0c0,0,0,0.1,0,0.1v0
								c0,0.1,0,0.1,0.1,0.2l0,0c0,0,0,0.1,0,0.1c0,0,0,0,0,0v0c0,0,0,0.1,0,0.2v0c0,0.1,0,0.1,0,0.2v0c0,0,0,0,0,0.1v0
								c0,0,0,0.1,0,0.1v6c0,0.9-0.6,2-1.4,2.4l-2.9,1.7v2.5c0,0.4,0.1,0.7,0.3,1l6-3.5c0.7-0.4,1.2-1.4,1.2-2.1V12.1
								c0,0,0-0.1,0-0.1v0c0,0,0,0,0,0c0,0,0,0,0,0v0c0,0,0-0.1,0-0.1c0,0,0,0,0-0.1c0,0,0,0,0-0.1v0c0,0,0,0,0-0.1c0,0,0,0,0,0l0,0
								c0-0.1,0-0.1,0-0.2l0,0c0,0,0,0,0-0.1s0,0,0-0.1l0,0l0,0l0,0l0,0c-0.2-0.5-0.6-0.9-1-1.2l-8.8-5c-0.3-0.2-0.8-0.3-1.2-0.3
								S10.3,4.7,10,4.9l-8.8,5C0.6,10.3,0,11.3,0,12.1z"/>
		</g>
	<linearGradient id="SVGID_2_" gradientUnits="userSpaceOnUse" x1="-174.6254" y1="301.8565" x2="-175.6691"
                        y2="302.1714" gradientTransform="matrix(14.5408 0 0 -20.4072 2575.1013 6182.2021)">
		<stop offset="0" style="stop-color:#0099CC"/>
		<stop offset="1" style="stop-color:#006699"/>
	</linearGradient>
	<path class="st3" d="M23.2,11.2L23.2,11.2c-0.2,0-0.3,0-0.4-0.1l-0.1,0h-0.1c0.2,0.5,0.2,0.6,0.2,0.9v2.9h0c0,0,0,0,0,0h0
							c0,0,0.1,0,0.1,0l0.1,0l0,0c0,0,0.1,0,0.1,0l0.1,0l0,0c0,0,0.1,0,0.1,0l0.1,0l0,0l0.1,0l0.1,0l0,0c0,0,0,0,0.1,0l0.1,0l0,0
							l0,0c0.1,0,0.1,0.1,0.2,0.1l5.2,3c0.8,0.5,1.4,1.5,1.4,2.4v4.4l3.2,1.8v-8.3c0-0.8-0.6-1.7-1.2-2.1l-8.8-5c0,0-0.1,0-0.1-0.1
							l0,0l0,0c0,0-0.1,0-0.1,0l-0.1,0c0,0-0.1,0-0.1,0h0l0,0C23.3,11.3,23.3,11.3,23.2,11.2z"/>

	<linearGradient id="SVGID_3_" gradientUnits="userSpaceOnUse" x1="-180.6052" y1="306.1089" x2="-180.1828"
                        y2="306.5836" gradientTransform="matrix(25.4731 0 0 -30.0108 4615.7842 9219.3906)">
		<stop offset="0" style="stop-color:#0099CC"/>
		<stop offset="1" style="stop-color:#006699"/>
	</linearGradient>
	<path class="st4" d="M21.4,35.9c0.7,0.4,1.8,0.4,2.5,0l7.2-4.1L27.9,30l-3.8,2.2c-0.8,0.4-2,0.4-2.8,0l-5.2-3
							c0,0-0.1-0.1-0.1-0.1l0,0l0,0c0,0-0.1-0.1-0.1-0.1l0,0l0,0c0,0-0.1-0.1-0.1-0.1l0,0l0,0c0,0-0.1-0.1-0.1-0.1l0,0
							c0,0-0.1-0.1-0.1-0.1l0,0c-0.1-0.1-0.2-0.2-0.2-0.3l0,0L15,28.1c-0.3-0.5-0.4-0.9-0.4-1.4v-6c0-0.9,0.6-2,1.4-2.4l2.9-1.7
							v-2.5c0,0,0-0.7-0.3-1l-6,3.5c-0.7,0.4-1.2,1.4-1.2,2.1v10.1c0,0,0,0.1,0,0.1c0,0,0,0,0,0v0c0,0,0,0.1,0,0.1c0,0,0,0,0,0.1
							c0,0,0,0.1,0,0.1s0,0,0,0.1c0,0,0,0,0,0.1v0c0,0,0,0,0,0.1l0,0l0,0c0,0.1,0.1,0.2,0.1,0.3l0,0c0,0,0,0.1,0.1,0.1v0
							c0,0.1,0.1,0.2,0.2,0.2l0,0c0,0,0.1,0.1,0.1,0.1l0,0.1c0,0,0,0,0,0.1c0,0,0.1,0.1,0.1,0.1l0,0c0,0,0.1,0.1,0.1,0.1l0,0
							c0,0,0.1,0.1,0.1,0.1l0,0c0,0,0.1,0.1,0.1,0.1l0,0c0,0,0.1,0.1,0.1,0.1L21.4,35.9z"/>
	</g>
</svg>
